<svg width="90" height="91" fill="none" xmlns="http://www.w3.org/2000/svg"><circle cx="45" cy="45.541" r="43" fill="url(#paint0_linear)"/><path fill-rule="evenodd" clip-rule="evenodd" d="M42.59 43.252c-1.231.31-4.391-2.412-6.553-4.703-.852-.904-1.411-1.847-1.939-2.737-.473-.798-.92-1.554-1.532-2.199-2.567-2.71-5.589.843-6.56 2.71-.376.72-.674 1.904-.959 3.037-.381 1.515-.74 2.94-1.229 3.048-.856.19-1.712-.855-2.662-6.085-.951-5.23-7.447-10.258-8.844-9.509-.731.392-.134 1.278.762 2.423.346.443 1.06.624 1.797.811.774.197 1.572.4 1.992.92 2.32 2.875-4.172 5.355-6.043 5.355-.637 0-1.754-.852-2.631-2.018-.37-.492-.735-1.12-1.049-1.661-.554-.955-.951-1.64-.951-.839 0 1.182.949 2.645 1.88 4.08.942 1.453 1.867 2.879 1.771 3.956-.084.946-.984 2.356-1.964 3.889-1.237 1.937-2.6 4.07-2.6 5.715 0 2.614 1.988 7.89 3.124 10.903.211.56.392 1.04.526 1.413.685 1.901.494 5.383 0 6.963-1.363-1.458-5.134-7.032-7.264-17.377C-.42 41.236 3.111 31.744 7.44 24.069c.324-.575.689-.608 1.114-.646.541-.05 1.182-.107 1.964-1.304.583-.892.484-1.642.402-2.258-.058-.44-.107-.81.108-1.114 6.043-8.58 15.55-13.152 22.463-15.14 7.658-2.203 17.331-1.27 22.03-.241 4.7 1.029 15.678 6.94 14.168 6.94-.495 0-1.49-.076-2.695-.166-2.474-.186-5.834-.439-7.58-.249-1.538.168-.983 1.292-.274 2.726.488.986 1.049 2.12 1.049 3.188 0 1.966-2.832 3.116-5.613 4.245-.927.377-1.849.751-2.658 1.153-1.91.947-1.156 2.122-.254 3.53.624.972 1.32 2.056 1.257 3.253-.155 2.93-4.55 5.088-7.17 5.627-2.622.54-2.237 1.85-.849 4.086 1.388 2.236-1.08 5.243-2.311 5.553zm7.388 9.52c-1.71.672-3.364.527-4.633-.8-1.743-1.822 1.779-4.717 3.343-6.003.286-.236.507-.417.618-.528.716-.718 2.864-.925 2.864.718 0 .157.003.337.007.533.032 1.846.09 5.181-2.199 6.08zm16.649 2.08c-2.747-.953-6.411-3.505-5.82-4.644.734-1.417 4.65-.6 6.403.252 3.163 1.536 3.455 2.299 3.936 3.55l.139.358c.59 1.475-2.694 1.165-4.658.484zm-15.874 8.901c-1.407.681-2.779 1.345-2.912 2.715a46.01 46.01 0 01-.083.783c-.262 2.382-.568 5.158 1.72 5.843 1.179.353 2.466-.362 3.811-1.11 1.56-.866 3.198-1.776 4.834-1.112 1.376.558 2.366 1.385 3.25 2.124 1.073.896 1.99 1.663 3.253 1.663 2.305 0 4.594-1.598 6.175-6.175 1.565-4.528.222-7.418-1.589-9.23-.702-.7-1.556-.1-2.377.477-.538.377-1.063.746-1.52.732-.837-.026-1.101-.645-1.387-1.314-.342-.804-.716-1.678-2.147-1.678-2.89 0-7.27 3.4-8.619 4.784-.613.629-1.518 1.067-2.41 1.498zM8.71 53.496c-.123 3.312 1.375 4.25 2.063 3.813.688-.438.813-2 .563-3.125-.25-1.124-2.693-2.188-2.626-.688z" fill="url(#paint1_linear)"/><path opacity=".5" fill-rule="evenodd" clip-rule="evenodd" d="M55.651 19.61c-.355.148-.715.294-1.075.44-.927.377-1.849.751-2.658 1.153-1.91.947-1.156 2.122-.254 3.53.624.972 1.32 2.056 1.257 3.253-.155 2.93-4.55 5.088-7.17 5.627-2.622.54-2.237 1.85-.849 4.086 1.388 2.236-1.08 5.243-2.311 5.553-1.232.31-4.392-2.412-6.554-4.703-.852-.904-1.411-1.847-1.939-2.737-.473-.798-.92-1.554-1.532-2.199-2.567-2.71-5.589.843-6.56 2.71-.376.72-.674 1.904-.959 3.037-.381 1.515-.74 2.94-1.229 3.048-.856.19-1.712-.855-2.662-6.085-.951-5.23-7.447-10.258-8.844-9.509-.731.392-.134 1.278.762 2.423.346.443 1.06.624 1.797.811.774.197 1.572.4 1.992.92 2.32 2.875-4.172 5.355-6.043 5.355-.637 0-1.754-.852-2.631-2.018-.37-.492-.735-1.12-1.049-1.661-.554-.955-.951-1.64-.951-.839 0 1.182.949 2.645 1.88 4.08.942 1.453 1.867 2.879 1.771 3.956-.084.946-.984 2.356-1.964 3.889-1.237 1.937-2.6 4.07-2.6 5.715 0 2.614 1.988 7.89 3.124 10.903.211.56.392 1.04.526 1.413.685 1.901.494 5.383 0 6.963-1.363-1.458-5.134-7.032-7.264-17.377C-.42 41.236 3.111 31.744 7.44 24.069c.324-.575.689-.608 1.114-.646.541-.05 1.182-.107 1.964-1.304.583-.892.484-1.642.402-2.258-.058-.44-.107-.81.108-1.114 6.043-8.58 15.55-13.152 22.463-15.14 6.5-1.87 14.453-1.48 19.583-.691A209.656 209.656 0 0155.65 19.61zm-.432 51.407c.49-3.752.881-7.535 1.17-11.347-1.412.942-2.623 1.965-3.227 2.585-.613.629-1.518 1.067-2.41 1.498-1.406.681-2.778 1.345-2.91 2.715-.025.253-.054.516-.084.783-.262 2.382-.568 5.158 1.72 5.843 1.179.353 2.466-.362 3.811-1.11.632-.35 1.277-.709 1.93-.967zm-9.874-19.044c1.27 1.326 2.924 1.47 4.633.8 2.29-.9 2.231-4.236 2.199-6.081a27.076 27.076 0 01-.007-.533c0-1.643-2.148-1.436-2.864-.718-.11.111-.332.292-.618.528-1.564 1.286-5.086 4.181-3.343 6.003zm-34.571 5.336c-.688.437-2.186-.5-2.063-3.813-.067-1.5 2.376-.436 2.626.688.25 1.125.125 2.687-.563 3.125z" fill="#94E28D"/><defs><linearGradient id="paint0_linear" x1="24.794" y1="41.784" x2="80.329" y2="45.696" gradientUnits="userSpaceOnUse"><stop stop-color="#66B1FF"/><stop offset="1" stop-color="#2188FF"/></linearGradient><linearGradient id="paint1_linear" x1="62.517" y1="34.684" x2="11.74" y2="35.351" gradientUnits="userSpaceOnUse"><stop stop-color="#31B499"/><stop offset="1" stop-color="#55E3AA"/></linearGradient></defs></svg>