<svg width="28" height="28" fill="none" xmlns="http://www.w3.org/2000/svg"><circle cx="14" cy="14" r="14" transform="rotate(-180 14 14)" fill="#DCDCDC"/><mask id="a" maskUnits="userSpaceOnUse" x="0" y="0" width="28" height="28"><circle cx="14" cy="14" r="14" transform="rotate(-180 14 14)" fill="#9E9FA7"/></mask><g mask="url(#a)" fill="#B3AEAE"><path opacity=".6" d="M24.541 10.351c1.08 1.178 1.857 2.885.737 4.025-1.145 1.165-3.217-.203-4.103-.816-.804-.557-2.21-1.92-1.973-3.525.237-1.604 3.928-1.223 5.34.316zm-8.983 1.689c1.506.2 2.242 2.124 1.178 2.666-.861.44-2.25 1.942-3.484 1.234-1.41-.807-1.23-1.876-.62-2.637.685-.857 1.36-1.47 2.926-1.262z"/><path opacity=".6" d="M17.682 23.392c-1.773.624 1.076 3.054-.53 4.203-2.27 1.623-6.26 1.617-8.923-.002-2.494-1.517-5.429-3.181-5.615-6.31-.132-2.212-.369-4.511 2.726-5.284 1.797-.449 5.355 2.181 6.285 2.71 2.41 1.372 3.364-1.033 5.527-2.195 1.67-.898 5.977.415 5.78 3.254-.182 2.614-2.937 2.808-5.25 3.623zM5.114 12.963c-.605 1.71 1.342 1.894 2.867 1.84.28-.446.847-1.525.868-2.261.026-.92-.342-1.92-1.63-2.157-1.29-.237-1.5.868-2.105 2.578zm8.231-2.336c-1.005.718-2.921 3.308-3.345 1.239-.423-2.07-2.302-2.686-2.596-3.19-.369-.632.841-1.79 2.025-3 1.183-1.209 3.76-3.024 6.416-2.787 2.657.236 1.905 3.2.61 4.85-.634.808-2.127 2.187-3.11 2.888zm-7.669-3.67c.407-.894 1.07-2.37 2.213-3.911.684-.923-.927-1.409-1.565-1.116-.48.22-1.589 1.26-2.027 1.689l-.008.008c-.453.443-2.345 2.294-2.051 2.7 1.044 1.445 3.091 1.39 3.438.63z"/></g></svg>