<svg width="270" height="108" fill="none" xmlns="http://www.w3.org/2000/svg"><path fill-rule="evenodd" clip-rule="evenodd" d="M7.857 104.571a7.143 7.143 0 0114.286 0H7.857z" fill="#FFB70A"/><path d="M21.713 91.147l-1.678 4.052c-.547 1.32-2.527.5-1.98-.82l1.679-4.052c.546-1.32 2.526-.5 1.98.82zm7.524 8.684l-4.052 1.679c-1.32.546-2.14-1.433-.82-1.98l4.052-1.679c1.32-.546 2.14 1.433.82 1.98zm-24.43 1.68L.755 99.833c-1.32-.547-.5-2.527.82-1.98l4.052 1.678c1.32.547.5 2.527-.82 1.98zm5.447-11.184l1.678 4.052c.547 1.32-1.433 2.14-1.98.82l-1.678-4.052c-.547-1.32 1.433-2.14 1.98-.82zM13.929 78.5v5.714a1.071 1.071 0 002.142 0V78.5a1.071 1.071 0 10-2.142 0z" fill="#FFB70A"/><path d="M16.385 79.972a1.071 1.071 0 001.515-1.515l-2.142-2.143a1.072 1.072 0 00-1.516 0L12.1 78.457a1.071 1.071 0 001.515 1.515L15 78.587l1.385 1.385z" fill="#FFB70A"/><path fill-rule="evenodd" clip-rule="evenodd" d="M1.429 105.571a1 1 0 011-1H27.57a1 1 0 011 1v.143a1 1 0 01-1 1H2.43a1 1 0 01-1-1v-.143z" fill="#FFD76C"/><path d="M261.713 91.342l-1.678 4.001c-.547 1.304-2.527.494-1.98-.81l1.679-4c.546-1.304 2.526-.494 1.979.809zm7.525 8.576l-4.053 1.658c-1.319.54-2.14-1.415-.82-1.955l4.053-1.658c1.319-.54 2.139 1.415.82 1.955zm-24.431 1.658l-4.052-1.657c-1.32-.54-.5-2.495.82-1.955l4.052 1.657c1.32.54.5 2.495-.82 1.955zm5.446-11.044l1.679 4.002c.547 1.303-1.433 2.113-1.98.81l-1.678-4.002c-.547-1.303 1.433-2.113 1.979-.81z" fill="#FFB70A"/><path fill-rule="evenodd" clip-rule="evenodd" d="M247.857 104.598c0-3.895 3.198-7.053 7.143-7.053s7.143 3.158 7.143 7.053h-14.286z" fill="#FFB70A"/><path fill-rule="evenodd" clip-rule="evenodd" d="M241.429 105.598a1 1 0 011-1h25.142a1 1 0 011 1v.116a1 1 0 01-1 1h-25.142a1 1 0 01-1-1v-.116z" fill="#FFD76C"/><path d="M253.929 77.058v5.643c0 .584.479 1.058 1.071 1.058s1.071-.474 1.071-1.058v-5.643c0-.584-.479-1.058-1.071-1.058s-1.071.474-1.071 1.058z" fill="#FFB70A"/><path d="M253.615 81.247a1.082 1.082 0 00-1.516 0 1.05 1.05 0 000 1.496l2.143 2.116a1.082 1.082 0 001.516 0l2.142-2.116a1.048 1.048 0 000-1.496 1.08 1.08 0 00-1.515 0L255 82.615l-1.385-1.368z" fill="#FFB70A"/><path fill-rule="evenodd" clip-rule="evenodd" d="M254.176 67h-1.067c-.53-1.421-1.084-2.83-1.664-4.227a1 1 0 01.537-1.306l.056.13.139.331.127.304.065.158a126.43 126.43 0 011.807 4.61zM16.903 67h-1.067a126.06 126.06 0 012.193-5.533 1 1 0 01.538 1.306A125.065 125.065 0 0016.903 67zM71 1.288v1.16c-1.62.957-3.216 1.95-4.787 2.976a1 1 0 01-1.382-.288 124.164 124.164 0 01.835-.55A127.131 127.131 0 0171 1.288zm-50.08 56.16a1 1 0 01-1.326.482 124.32 124.32 0 01.422-.907 126.438 126.438 0 013.09-6.133 1 1 0 01.413 1.35 125.622 125.622 0 00-2.598 5.209zm5.437-10.291a1 1 0 01-1.366.356 131.582 131.582 0 01.504-.864 126.983 126.983 0 013.644-5.82 1 1 0 01.287 1.381 126.022 126.022 0 00-3.07 4.947zm6.363-9.746a1 1 0 01-1.393.228 125.732 125.732 0 01.582-.813 127.45 127.45 0 014.163-5.46 1 1 0 01.16 1.402 126.55 126.55 0 00-3.512 4.642zm7.233-9.12a1 1 0 01-1.408.1 130.254 130.254 0 01.654-.757 127.817 127.817 0 014.647-5.055 1 1 0 01.03 1.411 126.719 126.719 0 00-3.923 4.301zm8.04-8.417a1 1 0 01-1.412-.03 117.9 117.9 0 01.72-.694 127.607 127.607 0 015.092-4.607 1 1 0 01-.1 1.408 126.818 126.818 0 00-4.3 3.923zm8.777-7.645a1 1 0 01-1.403-.159 130.14 130.14 0 01.782-.624 127.463 127.463 0 015.493-4.121 1 1 0 01-.23 1.393 126.467 126.467 0 00-4.642 3.511zm142.083-9.875a1 1 0 01-.356-1.365 176.027 176.027 0 01.863.504 126.416 126.416 0 015.821 3.643 1 1 0 01-1.382.288 125.807 125.807 0 00-4.946-3.07zm9.746 6.364a1 1 0 01-.229-1.393l.408.29.406.291a126.748 126.748 0 014.679 3.54l.253.2.139.111.39.313a1 1 0 01-1.403.16 127.068 127.068 0 00-4.643-3.512zm9.12 7.232a1 1 0 01-.1-1.407l.379.326.377.327a126.862 126.862 0 015.056 4.648 1 1 0 01-1.411.03 128.378 128.378 0 00-4.301-3.923zm8.417 8.04a1 1 0 01.03-1.411 78.01 78.01 0 01.603.626l.09.094a127.607 127.607 0 014.608 5.092 1 1 0 01-1.408-.1 127.041 127.041 0 00-3.923-4.301zm7.644 8.778a1 1 0 01.159-1.403l.313.39.312.391a126.766 126.766 0 013.831 5.086l.29.407a1 1 0 01-1.393-.229 125.222 125.222 0 00-3.512-4.642zm6.806 9.442a1 1 0 01.287-1.382l.276.417.274.419a126.64 126.64 0 013.094 4.985l.146.25.107.181.251.433a1 1 0 01-1.366-.356 125.991 125.991 0 00-3.069-4.947zm5.906 10.03a1 1 0 01.414-1.35 77.826 77.826 0 01.471.883 127.053 127.053 0 013.041 6.157 1 1 0 01-1.327-.481 125.378 125.378 0 00-2.599-5.21z" fill="#FFB70A"/></svg>